# xmcd CD database file
#
# Track frame offsets:
#	150
#	18291
#	56682
#	92242
#	124834
#	160833
#	187201
#
# Disc length: 2795 seconds
#
# Revision: 0
# Processed by: cddbd v1.5.2PL0 Copyright (c) Steve Scherf et al.
# Submitted via: CDex 1.70beta2
#
DISCID=5b0ae907
DTITLE=John Taylor - Requiem For A Dreamer
DYEAR=2011
DGENRE=Jazz
TTITLE0=Requiem For A Dreamer
TTITLE1=Somebody I Used To Be
TTITLE2=Ice 9
TTITLE3=Unstuck In Time
TTITLE4=So It Goes
TTITLE5=Calypso 53
TTITLE6=Requiem 2
EXTD=YEAR: 2011
EXTT0=
EXTT1=
EXTT2=
EXTT3=
EXTT4=
EXTT5=
EXTT6=
PLAYORDER=
